# xmcd CD database file
# Copyright (C) 1993-1998 Ti Kan
#
# Track frame offsets:
#	182
#	1895
#	23725
#	24482
#	51355
#	52342
#	72995
#	73340
#	96967
#	98867
#	121810
#	122285
#	146372
#	148980
#	181157
#	181847
#	208905
#
# Disc length: 2812 seconds
#
# Revision: 1
# Processed by: cddbd v1.4b41PL1 Copyright (c) Steve Scherf et al.
# Submitted via: CDValet v3.31 - Copyright (c) 1997 Greg Leichner
#
DISCID=f80afa11
DTITLE=Various Artist - Quiet Cuts
DYEAR=1900
DGENRE=
TTITLE0=N/A
TTITLE1=Whatever You Want
TTITLE2=N/A
TTITLE3=All My Love
TTITLE4=N/A
TTITLE5=Get Here
TTITLE6=N/A
TTITLE7=You've Got To Give Me Room
TTITLE8=N/A
TTITLE9=Sweet Control
TTITLE10=N/A
TTITLE11=You're Sensational
TTITLE12=N/A
TTITLE13=You Won't Forget Me
TTITLE14=N/A
TTITLE15=Don't Let The Sun Catch You Crying
TTITLE16=N/A
EXTD=
EXTT0=
EXTT1=
EXTT2=
EXTT3=
EXTT4=
EXTT5=
EXTT6=
EXTT7=
EXTT8=
EXTT9=
EXTT10=
EXTT11=
EXTT12=
EXTT13=
EXTT14=
EXTT15=
EXTT16=
PLAYORDER=
